Coordinates
version=1
nRows=15
nColumns=46
inDegrees=yes

Units are S.I. units (second, meters, Newtons, ...)
Angles are in degrees.

endheader
time	pelvis_tilt	pelvis_list	pelvis_rotation	pelvis_tx	pelvis_ty	pelvis_tz	bb_angle	bb_tx	bb_ty	bb_tz	hip_flexion_r	hip_adduction_r	hip_rotation_r	knee_angle_r	knee_angle_r_beta	ankle_angle_r	subtalar_angle_r	mtp_angle_r	crank_angle_r	hip_flexion_l	hip_adduction_l	hip_rotation_l	knee_angle_l	knee_angle_l_beta	ankle_angle_l	subtalar_angle_l	mtp_angle_l	crank_angle_l	lumbar_extension	lumbar_bending	lumbar_rotation	arm_flex_r	arm_add_r	arm_rot_r	elbow_flex_r	pro_sup_r	wrist_flex_r	wrist_dev_r	arm_flex_l	arm_add_l	arm_rot_l	elbow_flex_l	pro_sup_l	wrist_flex_l	wrist_dev_l
      5.00000000	    -11.05914442	     -5.70385743	     -7.04836340	      0.09677815	      1.17107424	     -0.26914401	      0.00000000	      0.50000000	      0.00000000	      0.25000000	     89.97369183	     -1.90872836	     -0.29683088	    103.46619727	      1.80582581	      7.51920730	      2.55847438	      0.00000000	      0.00000000	     45.02395139	    -20.00078513	    -14.63530278	     52.43462656	      0.91515688	    -17.44565630	      8.33828635	      0.00000000	      0.00000000	    -62.91454711	      5.07528994	      5.60995789	     89.78797707	      1.13003507	     24.86314932	     43.57844719	     23.64375358	      0.00000000	      0.00000000	     89.71784094	    -10.69266363	     28.66751084	     33.69359859	     22.06026626	      0.00000000	      0.00000000
      5.00500000	    -11.10836025	     -5.40077665	     -7.13475457	      0.09596041	      1.17191255	     -0.26840042	      0.00000000	      0.50000000	      0.00000000	      0.25000000	     89.14224871	     -1.73661054	     -0.23888341	    101.64045865	      1.77396066	      8.80243564	      2.46219575	      0.00000000	      0.00000000	     45.81391867	    -20.09305665	    -14.51337924	     54.12678412	      0.94469060	    -19.17874036	      7.83433956	      0.00000000	      0.00000000	    -63.00005213	      4.85717742	      5.31855314	     89.78714923	      1.17745964	     24.64283115	     44.03459671	     23.85687399	      0.00000000	      0.00000000	     89.71611480	    -10.94762794	     28.45288140	     34.07837524	     22.32746633	      0.00000000	      0.00000000
      5.01000000	    -11.08936338	     -5.20441306	     -7.16038054	      0.09523855	      1.17274668	     -0.26770285	      0.00000000	      0.50000000	      0.00000000	      0.25000000	     88.06568406	     -1.68503429	     -0.32627018	     99.64078806	      1.73905982	     10.14077349	      2.67968914	      0.00000000	      0.00000000	     46.62298345	    -20.19177404	    -14.22767316	     55.91565265	      0.97591224	    -20.52691064	      6.45522298	      0.00000000	      0.00000000	    -63.08296135	      4.74180304	      5.15409770	     89.78859781	      1.45090526	     24.57453768	     44.04952162	     23.71045904	      0.00000000	      0.00000000	     89.72184870	    -11.09174837	     28.45172546	     34.08660982	     22.25848684	      0.00000000	      0.00000000
      5.01500000	    -11.10477920	     -4.93274426	     -7.02937139	      0.09449023	      1.17313226	     -0.26710437	      0.00000000	      0.50000000	      0.00000000	      0.25000000	     86.97647069	     -1.85247348	     -0.40839567	     97.56369431	      1.70280770	     11.36337175	      2.83284386	      0.00000000	      0.00000000	     47.59774187	    -20.13956141	    -13.86107842	     57.80707562	      1.00892380	    -21.81927128	      5.23511414	      0.00000000	      0.00000000	    -63.08255735	      4.65148173	      4.76669734	     89.78869998	      1.67848679	     24.35646073	     44.09085688	     23.45555030	      0.00000000	      0.00000000	     89.72576852	    -11.26931978	     28.40570875	     34.30624331	     22.16695942	      0.00000000	      0.00000000
      5.02000000	    -11.07490334	     -4.63018047	     -6.99313864	      0.09377650	      1.17352886	     -0.26609695	      0.00000000	      0.50000000	      0.00000000	      0.25000000	     85.71408847	     -1.82952949	     -0.43915022	     95.34234011	      1.66403775	     12.67738417	      2.87607075	      0.00000000	      0.00000000	     48.49722837	    -20.17899618	    -13.60131097	     59.72603795	      1.04241601	    -22.91252134	      4.28910697	      0.00000000	      0.00000000	    -63.11828954	      4.38674211	      4.44234814	     89.78751466	      1.81058903	     24.23739236	     44.14377174	     23.32221829	      0.00000000	      0.00000000	     89.72988221	    -11.38350409	     28.34077308	     34.47461267	     22.11852176	      0.00000000	      0.00000000
      5.02500000	    -11.00980438	     -4.34579320	     -6.78348511	      0.09315326	      1.17361250	     -0.26530088	      0.00000000	      0.50000000	      0.00000000	      0.25000000	     84.37530215	     -2.04160296	     -0.58057477	     93.07142427	      1.62440279	     13.68666690	      2.83629437	      0.00000000	      0.00000000	     49.49106495	    -20.06773359	    -13.14549592	     61.73805274	      1.07753229	    -23.91604108	      3.15129427	      0.00000000	      0.00000000	    -63.16276346	      4.26084011	      4.05599493	     89.78604700	      1.97584849	     24.01718925	     44.16507730	     23.08485406	      0.00000000	      0.00000000	     89.73223942	    -11.51921341	     28.23169149	     34.79132131	     22.03869486	      0.00000000	      0.00000000
      5.03000000	    -10.91239672	     -4.05514784	     -6.61501280	      0.09264466	      1.17373602	     -0.26417655	      0.00000000	      0.50000000	      0.00000000	      0.25000000	     82.94274670	     -2.16680849	     -0.72790065	     90.74218716	      1.58374994	     14.57812572	      2.64313233	      0.00000000	      0.00000000	     50.41512597	    -20.07003337	    -12.81711444	     63.75921421	      1.11280822	    -24.68128041	      2.39986001	      0.00000000	      0.00000000	    -63.21291391	      4.02138349	      3.64466954	     89.78456648	      2.07026951	     23.90037871	     44.17474523	     22.95232928	      0.00000000	      0.00000000	     89.73611549	    -11.57144359	     28.16698900	     35.00044573	     21.99579079	      0.00000000	      0.00000000
      5.03500000	    -10.90174799	     -3.78028072	     -6.45865171	      0.09209781	      1.17340946	     -0.26295863	      0.00000000	      0.50000000	      0.00000000	      0.25000000	     81.55078975	     -2.28308668	     -0.94958863	     88.30917769	      1.54128591	     15.21433504	      2.29342590	      0.00000000	      0.00000000	     51.49941393	    -20.08924911	    -12.43455358	     65.84562742	      1.14922300	    -25.36570375	      1.66403515	      0.00000000	      0.00000000	    -63.15735611	      3.77551147	      3.28580763	     89.78203942	      2.14688091	     23.76484257	     44.09204942	     22.78977821	      0.00000000	      0.00000000	     89.73754924	    -11.61786379	     28.10439125	     35.28086183	     21.95480310	      0.00000000	      0.00000000
      5.04000000	    -10.95865594	     -3.55397651	     -6.27782755	      0.09158643	      1.17268446	     -0.26152141	      0.00000000	      0.50000000	      0.00000000	      0.25000000	     80.21400432	     -2.30748609	     -1.16871076	     85.85530314	      1.49845772	     15.59638231	      1.63642550	      0.00000000	      0.00000000	     52.75696031	    -20.16483525	    -11.89932922	     68.05438565	      1.18777310	    -25.79365158	      1.23452263	      0.00000000	      0.00000000	    -63.00812898	      3.55759354	      2.95942441	     89.77915661	      2.21905508	     23.54860882	     43.93280292	     22.51541890	      0.00000000	      0.00000000	     89.73763182	    -11.68170155	     28.04679994	     35.58764827	     21.85342942	      0.00000000	      0.00000000
      5.04500000	    -10.86494694	     -3.25021057	     -6.11958875	      0.09123490	      1.17213540	     -0.26001595	      0.00000000	      0.50000000	      0.00000000	      0.25000000	     78.71448563	     -2.34118003	     -1.27261570	     83.39164817	      1.45545883	     15.93918444	      1.26068214	      0.00000000	      0.00000000	     53.77190917	    -20.21720329	    -11.58315406	     70.20205594	      1.22525702	    -26.04206821	      0.62503478	      0.00000000	      0.00000000	    -62.98889346	      3.25881869	      2.61743039	     89.77597171	      2.21703587	     23.46017013	     43.82198940	     22.39620928	      0.00000000	      0.00000000	     89.74023474	    -11.67403566	     28.04349521	     35.76028218	     21.81861380	      0.00000000	      0.00000000
      5.05000000	    -10.80463023	     -3.02478665	     -5.94492285	      0.09079405	      1.17125128	     -0.25823845	      0.00000000	      0.50000000	      0.00000000	      0.25000000	     77.23938863	     -2.31043315	     -1.43798971	     80.92216483	      1.41235821	     15.96050936	      0.73010376	      0.00000000	      0.00000000	     54.92337879	    -20.38663119	    -11.16579883	     72.42731045	      1.26409504	    -26.18436012	      0.30373094	      0.00000000	      0.00000000	    -62.91587590	      2.97633208	      2.32608035	     89.77486725	      2.18289118	     23.34518316	     43.67459317	     22.27359528	      0.00000000	      0.00000000	     89.74460129	    -11.67420537	     28.04381173	     35.98982568	     21.79314706	      0.00000000	      0.00000000
      5.05500000	    -10.75069282	     -2.78700224	     -5.73367786	      0.09044523	      1.17029633	     -0.25653131	      0.00000000	      0.50000000	      0.00000000	      0.25000000	     75.79547029	     -2.34190208	     -1.55394226	     78.52107795	      1.37045134	     15.67919027	      0.26013034	      0.00000000	      0.00000000	     56.10631536	    -20.51145547	    -10.72946940	     74.64717180	      1.30283893	    -26.16944619	      0.07026263	      0.00000000	      0.00000000	    -62.83243572	      2.73119757	      2.01031126	     89.77249205	      2.15408431	     23.24655210	     43.49429278	     22.14750153	      0.00000000	      0.00000000	     89.74808215	    -11.64251422	     28.06864277	     36.21167717	     21.76481510	      0.00000000	      0.00000000
      5.06000000	    -10.67870425	     -2.52236766	     -5.48430170	      0.09033079	      1.16921092	     -0.25487985	      0.00000000	      0.50000000	      0.00000000	      0.25000000	     74.37487365	     -2.49625887	     -1.75498332	     76.20343140	      1.33000078	     15.41850330	     -0.15332754	      0.00000000	      0.00000000	     57.27236451	    -20.60526159	    -10.32919906	     76.86660186	      1.34157529	    -26.05092383	     -0.07004438	      0.00000000	      0.00000000	    -62.74564977	      2.48840859	      1.68458990	     89.76849610	      2.06112320	     23.15033216	     43.31291116	     22.03474712	      0.00000000	      0.00000000	     89.74800870	    -11.55706127	     28.11007224	     36.41886959	     21.74229870	      0.00000000	      0.00000000
      5.06500000	    -10.64533612	     -2.30983799	     -5.20658480	      0.09021234	      1.16776730	     -0.25313267	      0.00000000	      0.50000000	      0.00000000	      0.25000000	     73.11010768	     -2.65984668	     -1.88478432	     74.10253901	      1.29333329	     14.84589761	     -0.35448771	      0.00000000	      0.00000000	     58.56499568	    -20.77096840	     -9.87251190	     79.13588457	      1.38118174	    -25.81068277	     -0.10707034	      0.00000000	      0.00000000	    -62.58958820	      2.28347404	      1.41183003	     89.76652956	      1.94425259	     23.08905947	     43.09636813	     21.89348663	      0.00000000	      0.00000000	     89.75090725	    -11.41188327	     28.17206799	     36.61382588	     21.69057028	      0.00000000	      0.00000000
      5.07000000	    -10.66509704	     -2.10027823	     -4.92511705	      0.09008805	      1.16614306	     -0.25132568	      0.00000000	      0.50000000	      0.00000000	      0.25000000	     71.93159629	     -2.83924571	     -2.03505183	     72.06813540	      1.25782625	     14.16381104	     -0.43665386	      0.00000000	      0.00000000	     59.95404544	    -20.91914263	     -9.35848596	     81.39284536	      1.42057314	    -25.46920385	      0.05703460	      0.00000000	      0.00000000	    -62.36600271	      2.08065938	      1.18654376	     89.76349066	      1.71710207	     23.13548353	     42.85685385	     21.68520588	      0.00000000	      0.00000000	     89.75580833	    -11.12354561	     28.19970338	     36.61404467	     21.52688132	      0.00000000	      0.00000000
